<svg width="32" height="32" viewBox="0 0 24 24" fill="none" xmlns="http://www.w3.org/2000/svg">
  <!-- Document base -->
  <rect
    x="3"
    y="2"
    width="12"
    height="16"
    rx="2"
    ry="2"
    fill="#3B82F6"
    stroke="#1E40AF"
    stroke-width="1.5"
  />
  
  <!-- Document lines -->
  <line
    x1="6"
    y1="6"
    x2="12"
    y2="6"
    stroke="white"
    stroke-width="1"
    stroke-linecap="round"
  />
  <line
    x1="6"
    y1="8"
    x2="10"
    y2="8"
    stroke="white"
    stroke-width="1"
    stroke-linecap="round"
  />
  <line
    x1="6"
    y1="10"
    x2="11"
    y2="10"
    stroke="white"
    stroke-width="1"
    stroke-linecap="round"
  />
  
  <!-- AI/Processing indicator -->
  <circle
    cx="17"
    cy="7"
    r="3"
    fill="#10B981"
    stroke="#059669"
    stroke-width="1.5"
  />
  
  <!-- Neural network dots -->
  <circle cx="15.5" cy="6" r="0.8" fill="white" />
  <circle cx="18.5" cy="6" r="0.8" fill="white" />
  <circle cx="15.5" cy="8" r="0.8" fill="white" />
  <circle cx="18.5" cy="8" r="0.8" fill="white" />
  <circle cx="17" cy="7" r="0.8" fill="white" />
  
  <!-- Connection lines -->
  <line
    x1="15.5"
    y1="6"
    x2="17"
    y2="7"
    stroke="white"
    stroke-width="0.5"
    stroke-linecap="round"
  />
  <line
    x1="18.5"
    y1="6"
    x2="17"
    y2="7"
    stroke="white"
    stroke-width="0.5"
    stroke-linecap="round"
  />
  <line
    x1="15.5"
    y1="8"
    x2="17"
    y2="7"
    stroke="white"
    stroke-width="0.5"
    stroke-linecap="round"
  />
  <line
    x1="18.5"
    y1="8"
    x2="17"
    y2="7"
    stroke="white"
    stroke-width="0.5"
    stroke-linecap="round"
  />
  
  <!-- Processing arrow -->
  <path
    d="M19 12 L21 10 L19 8"
    stroke="#10B981"
    stroke-width="1.5"
    stroke-linecap="round"
    stroke-linejoin="round"
    fill="none"
  />
  
  <!-- Document corner fold -->
  <path
    d="M13 2 L15 4 L13 4 Z"
    fill="#1E40AF"
    stroke="#1E40AF"
    stroke-width="0.5"
  />
</svg>
